<svg xmlns="http://www.w3.org/2000/svg" width="120" height="70" viewBox="0 0 120 70">
  <g fill="none" fill-rule="evenodd">
    <rect width="120" height="70" fill="#FFFFFF"/>
    <g transform="translate(5 5)">
      <path fill="#006BB6" d="M52.62,0 L14.13,0 C6.32,0 0,6.32 0,14.13 L0,45.87 C0,53.68 6.32,60 14.13,60 L52.62,60 C60.43,60 66.75,53.68 66.75,45.87 L66.75,14.13 C66.75,6.32 60.43,0 52.62,0"/>
      <path fill="#FFFFFF" d="M15.93,49.5 L26.1,49.5 L26.1,29.25 L41.06,49.5 L52.86,49.5 L33.75,23.25 L51.94,10.5 L41.06,10.5 L26.1,23.25 L26.1,10.5 L15.93,10.5 L15.93,49.5 Z"/>
    </g>
  </g>
</svg>